<svg version="1.1" id="Layer_1" xmlns="http://www.w3.org/2000/svg" xmlns:xlink="http://www.w3.org/1999/xlink" x="0px" y="0px"
	 width="100%" viewBox="0 0 512 512" enable-background="new 0 0 512 512" xml:space="preserve">
<path fill="#000000" opacity="1.000000" stroke="none" 
	d="
M411.000000,513.000000 
	C400.979095,513.000000 390.958221,513.000000 380.328369,512.611328 
	C367.936218,510.936707 356.778137,507.453888 346.045441,502.537964 
	C332.585022,496.372620 320.652527,487.956085 310.706573,477.026520 
	C306.436188,472.333862 301.926056,470.833374 295.629150,470.851196 
	C215.657898,471.077240 135.685776,471.021057 55.713932,470.956970 
	C49.801624,470.952240 43.879566,470.459808 37.979824,469.976868 
	C24.218290,468.850372 14.197420,461.646423 7.080184,450.202148 
	C4.690893,446.360260 3.006550,442.079926 1.000004,438.000000 
	C1.000000,317.312439 1.000000,196.624878 1.361634,75.372726 
	C2.149623,73.966209 2.676211,73.159576 2.987086,72.276978 
	C6.789538,61.481525 13.675173,53.341270 23.830997,48.019413 
	C30.558140,44.494255 37.853199,43.086891 45.327606,43.049202 
	C70.817429,42.920670 96.308289,43.000000 121.798759,43.000000 
	C124.082123,43.000000 126.365486,43.000000 129.000000,43.000000 
	C129.000000,32.781193 129.316971,22.977520 128.876816,13.207955 
	C128.627228,7.668191 130.595230,3.885026 135.000000,1.000000 
	C137.700012,1.000000 140.400024,1.000000 143.639618,1.344532 
	C149.705536,3.985305 150.930679,8.725980 150.976364,13.989274 
	C151.059601,23.579462 151.000000,33.170887 151.000000,42.803589 
	C214.896851,42.803589 278.248077,42.803589 342.000000,42.803589 
	C342.000000,33.835861 342.242004,25.049517 341.917450,16.284149 
	C341.689697,10.132099 342.564880,4.744928 348.000000,1.000000 
	C351.030609,1.000000 354.061188,1.000000 357.631714,1.350560 
	C362.593872,4.194350 364.138763,8.040017 364.051544,13.014205 
	C363.877594,22.935928 364.000000,32.862846 364.000000,43.000000 
	C385.030487,43.000000 405.491821,42.935688 425.952057,43.056507 
	C429.851044,43.079529 433.908356,43.271389 437.615723,44.343220 
	C460.042938,50.827152 470.758423,66.594200 470.866821,88.168594 
	C471.221619,158.776779 470.984436,229.387878 471.076050,299.997742 
	C471.078766,302.084656 471.631439,304.662384 472.915894,306.168549 
	C477.731567,311.815521 483.236786,316.881104 487.969757,322.590546 
	C496.562653,332.956299 502.954712,344.654053 506.950165,357.530212 
	C509.247253,364.933105 511.001434,372.504486 513.000000,380.000000 
	C513.000000,390.020905 513.000000,400.041779 512.608582,410.675171 
	C511.015015,425.963135 505.774902,439.413605 499.085205,452.267670 
	C493.155731,463.661072 484.837952,473.266846 475.512451,482.177246 
	C462.746460,494.375031 447.758728,502.463287 431.238007,507.925110 
	C424.652527,510.102295 417.755310,511.336517 411.000000,513.000000 
M23.017794,430.947662 
	C23.743851,432.866241 24.324362,434.855835 25.220251,436.691528 
	C30.003946,446.493469 38.904518,448.928680 48.637253,448.941498 
	C127.634148,449.045654 206.631241,449.001251 285.628265,448.990082 
	C287.044403,448.989868 288.460510,448.841095 290.120972,448.747925 
	C268.399628,398.231079 273.913422,351.332214 312.705475,312.581726 
	C351.496246,273.832520 398.422363,268.430359 448.695801,290.081451 
	C448.695801,250.601639 448.695801,211.392868 448.695801,172.302979 
	C306.656616,172.302979 164.921799,172.302979 23.001143,172.302979 
	C23.001143,258.417999 23.001143,344.230194 23.017794,430.947662 
M23.000000,92.537140 
	C23.000000,111.625809 23.000000,130.714478 23.000000,149.747772 
	C165.297577,149.747772 307.004425,149.747772 447.998718,149.747772 
	C447.998718,127.287018 448.317230,105.075768 447.801147,82.883926 
	C447.649902,76.380852 443.668396,70.518562 437.237488,68.264198 
	C431.695435,66.321426 425.592224,65.263641 419.709534,65.141144 
	C401.271759,64.757225 382.820923,65.000000 364.000000,65.000000 
	C364.000000,79.697723 364.043610,93.983604 363.954620,108.268661 
	C363.940735,110.500725 363.711456,112.879852 362.914612,114.931892 
	C360.082367,122.225380 355.011017,127.763229 347.149292,128.822998 
	C338.348907,130.009293 329.996765,128.743927 324.453827,120.080833 
	C315.805176,106.563667 322.469116,87.449432 341.793030,85.639122 
	C341.793030,78.892227 341.793030,72.134956 341.793030,65.367279 
	C278.076904,65.367279 214.568512,65.367279 151.000000,65.367279 
	C151.000000,78.729843 150.820770,91.728317 151.047028,104.719734 
	C151.308350,119.723999 141.666306,130.389603 126.246902,129.063461 
	C113.286781,127.948814 105.143044,114.780388 107.578430,103.864006 
	C110.110443,92.514519 117.174271,86.454903 128.750916,85.777229 
	C128.750916,78.789627 128.750916,72.039856 128.750916,65.000000 
	C126.870804,65.000000 125.236366,65.000000 123.601929,65.000000 
	C99.276268,65.000000 74.950439,64.954041 50.625137,65.046677 
	C46.715511,65.061562 42.446583,64.826393 38.992290,66.264542 
	C34.764469,68.024734 30.874514,71.052467 27.461647,74.206451 
	C22.428354,78.857956 22.843355,85.335266 23.000000,92.537140 
M378.506561,301.999817 
	C378.006836,302.000336 377.484314,301.903931 377.010681,302.015350 
	C355.647644,307.041473 337.360962,317.082306 323.183044,334.246338 
	C304.239349,357.179993 296.545258,383.060730 302.016327,412.492004 
	C307.791168,443.557526 325.191284,466.401733 352.909058,480.827393 
	C375.908051,492.797150 400.342255,494.325745 425.128632,486.381165 
	C445.226288,479.939484 461.270050,467.577728 473.542084,450.714081 
	C483.852325,436.546265 489.711182,420.266968 490.891937,402.742554 
	C492.244385,382.669739 487.796143,363.855499 477.182220,346.481842 
	C465.920227,328.047424 450.353912,314.756592 430.321838,307.195892 
	C421.850647,303.998657 412.502472,303.188293 403.643097,300.937897 
	C395.388580,298.841095 387.435913,300.675232 378.506561,301.999817 
z"/>
<path fill="#FFFFFF" opacity="1.000000" stroke="none" 
	d="
M513.000000,379.531342 
	C511.001434,372.504486 509.247253,364.933105 506.950165,357.530212 
	C502.954712,344.654053 496.562653,332.956299 487.969757,322.590546 
	C483.236786,316.881104 477.731567,311.815521 472.915894,306.168549 
	C471.631439,304.662384 471.078766,302.084656 471.076050,299.997742 
	C470.984436,229.387878 471.221619,158.776779 470.866821,88.168594 
	C470.758423,66.594200 460.042938,50.827152 437.615723,44.343220 
	C433.908356,43.271389 429.851044,43.079529 425.952057,43.056507 
	C405.491821,42.935688 385.030487,43.000000 364.000000,43.000000 
	C364.000000,32.862846 363.877594,22.935928 364.051544,13.014205 
	C364.138763,8.040017 362.593872,4.194350 358.085815,1.350560 
	C409.624298,1.000000 461.248627,1.000000 513.000000,1.000000 
	C513.000000,127.020866 513.000000,253.041779 513.000000,379.531342 
z"/>
<path fill="#FFFFFF" opacity="1.000000" stroke="none" 
	d="
M1.000004,438.468658 
	C3.006550,442.079926 4.690893,446.360260 7.080184,450.202148 
	C14.197420,461.646423 24.218290,468.850372 37.979824,469.976868 
	C43.879566,470.459808 49.801624,470.952240 55.713932,470.956970 
	C135.685776,471.021057 215.657898,471.077240 295.629150,470.851196 
	C301.926056,470.833374 306.436188,472.333862 310.706573,477.026520 
	C320.652527,487.956085 332.585022,496.372620 346.045441,502.537964 
	C356.778137,507.453888 367.936218,510.936707 379.859680,512.611328 
	C253.788467,513.000000 127.576942,513.000000 1.000000,513.000000 
	C1.000000,488.313629 1.000000,463.625488 1.000004,438.468658 
z"/>
<path fill="#FFFFFF" opacity="1.000000" stroke="none" 
	d="
M347.531342,1.000000 
	C342.564880,4.744928 341.689697,10.132099 341.917450,16.284149 
	C342.242004,25.049517 342.000000,33.835861 342.000000,42.803589 
	C278.248077,42.803589 214.896851,42.803589 151.000000,42.803589 
	C151.000000,33.170887 151.059601,23.579462 150.976364,13.989274 
	C150.930679,8.725980 149.705536,3.985305 144.089600,1.344532 
	C211.687561,1.000000 279.375122,1.000000 347.531342,1.000000 
z"/>
<path fill="#FFFFFF" opacity="1.000000" stroke="none" 
	d="
M134.531342,1.000000 
	C130.595230,3.885026 128.627228,7.668191 128.876816,13.207955 
	C129.316971,22.977520 129.000000,32.781193 129.000000,43.000000 
	C126.365486,43.000000 124.082123,43.000000 121.798759,43.000000 
	C96.308289,43.000000 70.817429,42.920670 45.327606,43.049202 
	C37.853199,43.086891 30.558140,44.494255 23.830997,48.019413 
	C13.675173,53.341270 6.789538,61.481525 2.987086,72.276978 
	C2.676211,73.159576 2.149623,73.966209 1.361634,74.904068 
	C1.000000,50.385315 1.000000,25.770630 1.000000,1.000000 
	C45.354111,1.000000 89.708397,1.000000 134.531342,1.000000 
z"/>
<path fill="#FFFFFF" opacity="1.000000" stroke="none" 
	d="
M411.468658,513.000000 
	C417.755310,511.336517 424.652527,510.102295 431.238007,507.925110 
	C447.758728,502.463287 462.746460,494.375031 475.512451,482.177246 
	C484.837952,473.266846 493.155731,463.661072 499.085205,452.267670 
	C505.774902,439.413605 511.015015,425.963135 512.608582,411.143799 
	C513.000000,444.926941 513.000000,478.853882 513.000000,513.000000 
	C479.312744,513.000000 445.625031,513.000000 411.468658,513.000000 
z"/>
<path fill="#FFFFFF" opacity="1.000000" stroke="none" 
	d="
M23.009468,430.495026 
	C23.001143,344.230194 23.001143,258.417999 23.001143,172.302979 
	C164.921799,172.302979 306.656616,172.302979 448.695801,172.302979 
	C448.695801,211.392868 448.695801,250.601639 448.695801,290.081451 
	C398.422363,268.430359 351.496246,273.832520 312.705475,312.581726 
	C273.913422,351.332214 268.399628,398.231079 290.120972,448.747925 
	C288.460510,448.841095 287.044403,448.989868 285.628265,448.990082 
	C206.631241,449.001251 127.634148,449.045654 48.637253,448.941498 
	C38.904518,448.928680 30.003946,446.493469 25.220251,436.691528 
	C24.324362,434.855835 23.743851,432.866241 23.009468,430.495026 
z"/>
<path fill="#FFFFFF" opacity="1.000000" stroke="none" 
	d="
M23.000000,92.045082 
	C22.843355,85.335266 22.428354,78.857956 27.461647,74.206451 
	C30.874514,71.052467 34.764469,68.024734 38.992290,66.264542 
	C42.446583,64.826393 46.715511,65.061562 50.625137,65.046677 
	C74.950439,64.954041 99.276268,65.000000 123.601929,65.000000 
	C125.236366,65.000000 126.870804,65.000000 128.750916,65.000000 
	C128.750916,72.039856 128.750916,78.789627 128.750916,85.777229 
	C117.174271,86.454903 110.110443,92.514519 107.578430,103.864006 
	C105.143044,114.780388 113.286781,127.948814 126.246902,129.063461 
	C141.666306,130.389603 151.308350,119.723999 151.047028,104.719734 
	C150.820770,91.728317 151.000000,78.729843 151.000000,65.367279 
	C214.568512,65.367279 278.076904,65.367279 341.793030,65.367279 
	C341.793030,72.134956 341.793030,78.892227 341.793030,85.639122 
	C322.469116,87.449432 315.805176,106.563667 324.453827,120.080833 
	C329.996765,128.743927 338.348907,130.009293 347.149292,128.822998 
	C355.011017,127.763229 360.082367,122.225380 362.914612,114.931892 
	C363.711456,112.879852 363.940735,110.500725 363.954620,108.268661 
	C364.043610,93.983604 364.000000,79.697723 364.000000,65.000000 
	C382.820923,65.000000 401.271759,64.757225 419.709534,65.141144 
	C425.592224,65.263641 431.695435,66.321426 437.237488,68.264198 
	C443.668396,70.518562 447.649902,76.380852 447.801147,82.883926 
	C448.317230,105.075768 447.998718,127.287018 447.998718,149.747772 
	C307.004425,149.747772 165.297577,149.747772 23.000000,149.747772 
	C23.000000,130.714478 23.000000,111.625809 23.000000,92.045082 
z"/>
<path fill="#FFFFFF" opacity="1.000000" stroke="none" 
	d="
M378.953674,301.998291 
	C387.435913,300.675232 395.388580,298.841095 403.643097,300.937897 
	C412.502472,303.188293 421.850647,303.998657 430.321838,307.195892 
	C450.353912,314.756592 465.920227,328.047424 477.182220,346.481842 
	C487.796143,363.855499 492.244385,382.669739 490.891937,402.742554 
	C489.711182,420.266968 483.852325,436.546265 473.542084,450.714081 
	C461.270050,467.577728 445.226288,479.939484 425.128632,486.381165 
	C400.342255,494.325745 375.908051,492.797150 352.909058,480.827393 
	C325.191284,466.401733 307.791168,443.557526 302.016327,412.492004 
	C296.545258,383.060730 304.239349,357.179993 323.183044,334.246338 
	C337.360962,317.082306 355.647644,307.041473 377.010681,302.015350 
	C377.484314,301.903931 378.006836,302.000336 378.953674,301.998291 
M385.000000,437.279846 
	C385.002625,443.372742 387.232269,447.435699 391.327667,448.810303 
	C395.824890,450.319794 401.879700,448.866699 404.579834,444.714508 
	C406.133911,442.324768 406.810669,439.010834 406.895508,436.084290 
	C407.173645,426.490143 407.000000,416.882904 407.000000,406.999969 
	C417.297943,406.999969 427.096680,407.130859 436.890137,406.960175 
	C445.322876,406.813202 449.704407,401.491425 449.093018,394.493622 
	C448.531830,388.070557 445.029419,385.000153 436.975983,385.000031 
	C427.050598,384.999908 417.125214,385.000000 406.999969,385.000000 
	C406.999969,374.278839 407.105408,364.137451 406.964600,353.999481 
	C406.863007,346.686737 401.971130,341.873535 395.174225,342.000000 
	C388.449738,342.125183 385.000214,346.172546 385.000061,353.938049 
	C384.999878,364.204041 385.000000,374.470032 385.000000,385.000000 
	C373.516174,385.000000 362.538177,384.708008 351.596710,385.210968 
	C348.951691,385.332520 345.443573,387.464478 344.023010,389.731445 
	C338.721100,398.192413 344.051178,406.840942 354.351562,406.971985 
	C364.457123,407.100555 374.565613,407.000000 385.000000,407.000000 
	C385.000000,417.080444 385.000000,426.704620 385.000000,437.279846 
z"/>
<path fill="#000000" opacity="1.000000" stroke="none" 
	d="
M385.000000,436.804321 
	C385.000000,426.704620 385.000000,417.080444 385.000000,407.000000 
	C374.565613,407.000000 364.457123,407.100555 354.351562,406.971985 
	C344.051178,406.840942 338.721100,398.192413 344.023010,389.731445 
	C345.443573,387.464478 348.951691,385.332520 351.596710,385.210968 
	C362.538177,384.708008 373.516174,385.000000 385.000000,385.000000 
	C385.000000,374.470032 384.999878,364.204041 385.000061,353.938049 
	C385.000214,346.172546 388.449738,342.125183 395.174225,342.000000 
	C401.971130,341.873535 406.863007,346.686737 406.964600,353.999481 
	C407.105408,364.137451 406.999969,374.278839 406.999969,385.000000 
	C417.125214,385.000000 427.050598,384.999908 436.975983,385.000031 
	C445.029419,385.000153 448.531830,388.070557 449.093018,394.493622 
	C449.704407,401.491425 445.322876,406.813202 436.890137,406.960175 
	C427.096680,407.130859 417.297943,406.999969 407.000000,406.999969 
	C407.000000,416.882904 407.173645,426.490143 406.895508,436.084290 
	C406.810669,439.010834 406.133911,442.324768 404.579834,444.714508 
	C401.879700,448.866699 395.824890,450.319794 391.327667,448.810303 
	C387.232269,447.435699 385.002625,443.372742 385.000000,436.804321 
z"/>
</svg>